<svg id="visual" viewBox="0 0 1080 600" width="1080" height="600" xmlns="http://www.w3.org/2000/svg" xmlns:xlink="http://www.w3.org/1999/xlink" version="1.1"><rect x="0" y="0" width="1080" height="600" fill="#F7F8FC"></rect><defs><linearGradient id="grad1_0" x1="44.4%" y1="0%" x2="100%" y2="100%"><stop offset="13.999999999999998%" stop-color="#f7f8fc" stop-opacity="1"></stop><stop offset="86%" stop-color="#f7f8fc" stop-opacity="1"></stop></linearGradient></defs><defs><linearGradient id="grad2_0" x1="0%" y1="0%" x2="55.6%" y2="100%"><stop offset="13.999999999999998%" stop-color="#f7f8fc" stop-opacity="1"></stop><stop offset="86%" stop-color="#f7f8fc" stop-opacity="1"></stop></linearGradient></defs><g transform="translate(1080, 0)"><path d="M0 300C-33.6 260 -67.3 220.1 -115.5 200.1C-163.7 180 -226.6 180 -259.8 150C-293 120 -296.5 60 -300 0L0 0Z" fill="#FBAE3C"></path></g><g transform="translate(0, 600)"><path d="M0 -300C62.1 -297.7 124.1 -295.4 150 -259.8C175.9 -224.2 165.5 -155.3 184.5 -106.5C203.4 -57.7 251.7 -28.8 300 0L0 0Z" fill="#FBAE3C"></path></g></svg>